<svg width="273" height="232" viewBox="0 0 273 232" fill="none" xmlns="http://www.w3.org/2000/svg">
<path fill-rule="evenodd" clip-rule="evenodd" d="M394.935 120.399C438.527 70.1483 499.38 0 590.066 0C675.263 0 773.081 69.0609 769.926 182.07C766.945 288.8 684.729 361 590.066 361C508.173 361 442.81 292.869 393.978 241.969C386.364 234.032 379.152 226.514 372.341 219.739C363.1 210.546 353.118 199.88 342.552 188.588C295.391 138.192 236.572 75.3391 179.86 75.3391C110.44 75.3391 78.8858 134.355 78.8858 182.07C78.8858 241.713 129.373 288.8 179.86 288.8C239.936 288.8 271.506 253.845 285.646 232.296L336.133 288.8C325.615 305.542 260.639 361 179.86 361C78.8858 361 0 266.826 0 182.07C0 97.313 59.9532 0 179.86 0C275.785 0 355.512 89.9884 384.963 131.843C388.184 128.181 391.506 124.352 394.935 120.399ZM455.94 168.31C490.827 126.206 532.655 75.7229 596.377 78.4791C668.952 81.6182 694.195 134.983 694.195 185.21C694.195 235.436 662.641 291.94 596.377 291.94C543.365 291.94 471.211 220.786 441.761 185.21C446.38 179.848 451.093 174.16 455.94 168.31Z" fill="white"/>
</svg>
