<svg width="281" height="394" viewBox="0 0 281 394" fill="none" xmlns="http://www.w3.org/2000/svg">
<path d="M166 239.06C166 244.528 161.542 249 156.09 249H11.9096C6.45801 249 2.00003 244.528 2.00003 239.06V33.7973C2.00003 28.3288 6.45801 23.8569 11.9096 23.8569H156.09C161.542 23.8569 166 28.3288 166 33.7973V239.06Z" fill="#C99C6C"/>
<path d="M166 239.06C166 244.528 161.542 249 156.09 249H11.9096C6.45801 249 2.00003 244.528 2.00003 239.06V33.7973C2.00003 28.3288 6.45801 23.8569 11.9096 23.8569H156.09C161.542 23.8569 166 28.3288 166 33.7973V239.06Z" stroke="#C99C6C" stroke-width="3.02505" stroke-miterlimit="10"/>
<path d="M156.95 36.281H11.0504V236.576H156.95V36.281Z" fill="#F9F9F9"/>
<path d="M146.97 70.9458H125.583V93.8276H146.97V70.9458Z" stroke="#B6B9BA" stroke-width="4.89654" stroke-miterlimit="10"/>
<path d="M112.773 70.9458H21.8784V72.7591H112.773V70.9458Z" fill="#B6B9BA" stroke="#B6B9BA" stroke-width="1.63218" stroke-miterlimit="10"/>
<path d="M112.773 79.8841H21.8784V81.6974H112.773V79.8841Z" fill="#B6B9BA" stroke="#B6B9BA" stroke-width="1.63218" stroke-miterlimit="10"/>
<path d="M112.773 88.8223H21.8784V90.6356H112.773V88.8223Z" fill="#B6B9BA" stroke="#B6B9BA" stroke-width="1.63218" stroke-miterlimit="10"/>
<path d="M67.3283 97.7607H21.8784V99.574H67.3283V97.7607Z" fill="#B6B9BA" stroke="#B6B9BA" stroke-width="1.15414" stroke-miterlimit="10"/>
<path d="M130.932 78.0953L135.922 88.8223L146.97 68.4405" stroke="#ABD26C" stroke-width="4.89654" stroke-miterlimit="10" stroke-linecap="round" stroke-linejoin="round"/>
<path d="M146.97 128.331H125.583V151.212H146.97V128.331Z" stroke="#B6B9BA" stroke-width="4.89654" stroke-miterlimit="10"/>
<path d="M112.773 128.331H21.8784V130.144H112.773V128.331Z" fill="#B6B9BA" stroke="#B6B9BA" stroke-width="1.63218" stroke-miterlimit="10"/>
<path d="M112.773 137.269H21.8784V139.082H112.773V137.269Z" fill="#B6B9BA" stroke="#B6B9BA" stroke-width="1.63218" stroke-miterlimit="10"/>
<path d="M112.773 146.207H21.8784V148.02H112.773V146.207Z" fill="#B6B9BA" stroke="#B6B9BA" stroke-width="1.63218" stroke-miterlimit="10"/>
<path d="M67.3283 155.145H21.8784V156.959H67.3283V155.145Z" fill="#B6B9BA" stroke="#B6B9BA" stroke-width="1.15414" stroke-miterlimit="10"/>
<path d="M130.932 135.48L135.922 146.207L146.97 125.831" stroke="#ABD26C" stroke-width="4.89654" stroke-miterlimit="10" stroke-linecap="round" stroke-linejoin="round"/>
<path d="M146.97 185.721H125.583V208.603H146.97V185.721Z" stroke="#B6B9BA" stroke-width="4.89654" stroke-miterlimit="10"/>
<path d="M112.773 185.721H21.8784V187.534H112.773V185.721Z" fill="#B6B9BA" stroke="#B6B9BA" stroke-width="1.63218" stroke-miterlimit="10"/>
<path d="M112.773 194.659H21.8784V196.472H112.773V194.659Z" fill="#B6B9BA" stroke="#B6B9BA" stroke-width="1.63218" stroke-miterlimit="10"/>
<path d="M112.773 203.597H21.8784V205.411H112.773V203.597Z" fill="#B6B9BA" stroke="#B6B9BA" stroke-width="1.63218" stroke-miterlimit="10"/>
<path d="M67.3283 212.536H21.8784V214.349H67.3283V212.536Z" fill="#B6B9BA" stroke="#B6B9BA" stroke-width="1.15414" stroke-miterlimit="10"/>
<path d="M130.932 192.871L135.922 203.598L143.221 190.128" stroke="#ABD26C" stroke-width="4.89654" stroke-miterlimit="10" stroke-linecap="round" stroke-linejoin="round"/>
<path d="M110.426 15.4036H95.3491C95.5854 14.4445 95.725 13.4532 95.725 12.4241C95.725 5.57093 90.1714 0 83.3394 0C76.5074 0 70.9537 5.57093 70.9537 12.4241C70.9537 13.4532 71.0933 14.4499 71.3297 15.4036H55.4313C49.9797 15.4036 45.5217 19.8754 45.5217 25.3439V31.8039C45.5217 37.2724 49.9797 41.7442 55.4313 41.7442H110.431C115.883 41.7442 120.341 37.2724 120.341 31.8039V25.3439C120.335 19.8808 115.877 15.4036 110.426 15.4036ZM78.8814 12.4241C78.8814 9.95655 80.8848 7.95231 83.3394 7.95231C85.7993 7.95231 87.7974 9.95655 87.7974 12.4241C87.7974 13.5717 87.3516 14.6116 86.6372 15.4036H80.0362C79.3272 14.6116 78.8814 13.5717 78.8814 12.4241Z" fill="#CC4333"/>
<path d="M119.116 36.4589H46.741V43.2797H119.116V36.4589Z" fill="#CC4333"/>
<path d="M49.0505 36.5936H48.1482V43.2798H49.0505V36.5936Z" fill="#A51B1B"/>
<path d="M51.2688 36.5936H50.3664V43.2798H51.2688V36.5936Z" fill="#A51B1B"/>
<path d="M53.4816 36.5936H52.5793V43.2798H53.4816V36.5936Z" fill="#A51B1B"/>
<path d="M55.6945 36.5936H54.7922V43.2798H55.6945V36.5936Z" fill="#A51B1B"/>
<path d="M57.9074 36.5936H57.0051V43.2798H57.9074V36.5936Z" fill="#A51B1B"/>
<path d="M60.1257 36.5936H59.2233V43.2798H60.1257V36.5936Z" fill="#A51B1B"/>
<path d="M62.3385 36.5936H61.4362V43.2798H62.3385V36.5936Z" fill="#A51B1B"/>
<path d="M64.5514 36.5936H63.649V43.2798H64.5514V36.5936Z" fill="#A51B1B"/>
<path d="M66.7697 36.5936H65.8673V43.2798H66.7697V36.5936Z" fill="#A51B1B"/>
<path d="M68.9825 36.5936H68.0801V43.2798H68.9825V36.5936Z" fill="#A51B1B"/>
<path d="M71.1954 36.5936H70.2931V43.2798H71.1954V36.5936Z" fill="#A51B1B"/>
<path d="M73.4137 36.5936H72.5113V43.2798H73.4137V36.5936Z" fill="#A51B1B"/>
<path d="M75.6265 36.5936H74.7242V43.2798H75.6265V36.5936Z" fill="#A51B1B"/>
<path d="M77.8394 36.5936H76.9371V43.2798H77.8394V36.5936Z" fill="#A51B1B"/>
<path d="M80.0577 36.5936H79.1553V43.2798H80.0577V36.5936Z" fill="#A51B1B"/>
<path d="M82.2705 36.5936H81.3682V43.2798H82.2705V36.5936Z" fill="#A51B1B"/>
<path d="M84.4834 36.5936H83.5811V43.2798H84.4834V36.5936Z" fill="#A51B1B"/>
<path d="M86.7017 36.5936H85.7993V43.2798H86.7017V36.5936Z" fill="#A51B1B"/>
<path d="M88.9145 36.5936H88.0122V43.2798H88.9145V36.5936Z" fill="#A51B1B"/>
<path d="M91.1274 36.5936H90.2251V43.2798H91.1274V36.5936Z" fill="#A51B1B"/>
<path d="M93.3403 36.5936H92.438V43.2798H93.3403V36.5936Z" fill="#A51B1B"/>
<path d="M95.5585 36.5936H94.6562V43.2798H95.5585V36.5936Z" fill="#A51B1B"/>
<path d="M97.7714 36.5936H96.869V43.2798H97.7714V36.5936Z" fill="#A51B1B"/>
<path d="M99.9897 36.5936H99.0873V43.2798H99.9897V36.5936Z" fill="#A51B1B"/>
<path d="M102.203 36.5936H101.3V43.2798H102.203V36.5936Z" fill="#A51B1B"/>
<path d="M104.415 36.5936H103.513V43.2798H104.415V36.5936Z" fill="#A51B1B"/>
<path d="M106.634 36.5936H105.731V43.2798H106.634V36.5936Z" fill="#A51B1B"/>
<path d="M108.847 36.5936H107.944V43.2798H108.847V36.5936Z" fill="#A51B1B"/>
<path d="M111.059 36.5936H110.157V43.2798H111.059V36.5936Z" fill="#A51B1B"/>
<path d="M113.272 36.5936H112.37V43.2798H113.272V36.5936Z" fill="#A51B1B"/>
<path d="M115.491 36.5936H114.588V43.2798H115.491V36.5936Z" fill="#A51B1B"/>
<path d="M117.703 36.5936H116.801V43.2798H117.703V36.5936Z" fill="#A51B1B"/>
<path d="M213.55 89.0047H186.658V98.403H213.55V89.0047Z" fill="#212121"/>
<path d="M228.188 150.345C233.249 134.821 246.297 108.263 238.685 103.606C228.732 97.564 200.167 93.8298 200.167 93.8298V94.3333C200.167 94.3333 171.309 96.7249 161.355 102.725C153.702 107.34 166.959 135.241 171.978 150.765C173.191 154.499 173.526 171.24 173.024 186.009C172.898 189.659 169.427 206.4 169.929 213.364C170.096 215.42 193.433 228.301 199.958 228.637V228.133C206.524 227.797 229.903 215.043 230.028 212.945C230.53 206.022 227.184 189.239 227.101 185.589C226.641 170.82 226.975 154.08 228.188 150.345Z" fill="#FFCBAC"/>
<path d="M171.351 106.081C167.127 102.011 159.055 103.648 151.652 111.619C144.208 119.633 140.026 125.885 138.144 128.024C136.22 130.206 124.008 142.122 121.289 145.814C118.529 149.506 117.943 154.499 121.331 157.688C124.175 160.331 132.372 158.485 138.771 153.828C145.17 149.171 182.685 117.032 171.351 106.081Z" fill="#FFCBAC"/>
<path d="M171.686 100.291C171.686 100.291 163.488 99.9135 158.219 103.102C152.949 106.291 131.828 131.297 131.828 131.297C131.828 131.297 143.832 148.877 144.668 149.506C145.504 150.136 165.579 134.779 165.579 134.779C165.579 134.779 178.084 107.046 171.686 100.291Z" fill="#403D3D"/>
<path d="M212.086 89.2147C211.417 86.2777 209.828 71.6348 209.828 71.6348H200.167V72.1383H190.506C190.506 72.1383 188.833 86.7392 188.205 89.7181C187.578 92.6971 179.59 97.1025 179.59 97.1025L200.125 97.1445V96.641L220.66 96.683C220.702 96.683 212.755 92.1936 212.086 89.2147Z" fill="#FFCBAC"/>
<path d="M211.459 85.1029C210.873 80.6136 210.121 74.2361 209.911 72.2642L209.284 71.6348H200.167V72.1383H190.506C190.506 72.1383 188.833 86.7392 188.205 89.7181C187.578 92.6971 179.59 97.1025 179.59 97.1025H180.552C189.711 94.669 198.87 92.2355 200.083 91.8999C202.634 91.1447 211.459 85.1029 211.459 85.1029Z" fill="#D88E65"/>
<path d="M215.683 197.295C227.393 196.036 232.83 203.756 235.131 228.93C237.431 254.104 236.553 281.796 235.34 285.866C234.127 289.935 217.523 291.781 215.641 289.684C213.759 287.586 204.224 235.811 203.387 227.63C202.551 219.49 202.927 198.68 215.683 197.295Z" fill="#FFCBAC"/>
<path d="M226.306 307.179L229.401 306.76C234.043 306.172 237.347 301.851 236.762 297.194L235.423 286.788C234.838 282.131 230.53 278.817 225.888 279.404L222.793 279.824C218.151 280.411 214.847 284.733 215.432 289.39L216.771 299.795C217.356 304.452 221.664 307.767 226.306 307.179Z" fill="#FFCBAC"/>
<path d="M230.405 105.368C234.754 101.466 242.784 103.396 249.894 111.661C257.004 119.927 260.977 126.346 262.776 128.57C264.616 130.836 276.368 143.171 278.961 146.989C281.554 150.765 281.972 155.8 278.459 158.863C275.532 161.422 267.418 159.24 261.186 154.331C254.955 149.422 218.694 115.857 230.405 105.368Z" fill="#FFCBAC"/>
<path d="M226.39 291.614C229.986 291.236 238.895 291.488 240.86 314.983C242.826 338.479 236.26 371.625 236.26 371.625L227.812 372.506C227.812 372.506 219.154 329.542 218.234 321.193C216.185 302.313 215.056 292.788 226.39 291.614Z" fill="#FFCBAC"/>
<path d="M241.153 103.899C240.066 101.634 232.914 99.9555 226.473 97.9416C220.827 96.1794 215.767 93.9557 215.767 93.9557L200.041 102.934L184.358 93.9138C184.358 93.9138 179.297 96.1375 173.651 97.8996C167.252 99.8716 160.059 101.55 158.971 103.816C157.842 106.123 169.302 150.345 170.556 154.08C171.853 157.856 168.507 184.121 171.769 192.008L199.874 192.931H199.916L228.021 192.092C230.614 183.072 228.021 157.436 229.317 153.66C230.697 149.926 242.282 106.207 241.153 103.899Z" fill="#403D3D"/>
<path d="M227.854 191.421C227.854 191.421 234.252 211.686 236.051 222.889C237.891 234.091 237.556 283.935 238.1 289.348C238.644 294.76 240.777 311.375 242.115 327.78C243.495 344.143 242.575 376.744 242.575 376.744L221.664 378.422C221.664 378.422 214.47 309.361 213.341 298.494C212.212 287.628 199.539 229.811 199.539 229.811L199.958 192.931L227.854 191.421Z" fill="#212121"/>
<path d="M239.689 376.995C239.689 376.995 247.678 384.589 247.51 386.855C247.427 388.114 244.875 392.981 239.48 393.904C235.34 394.575 228.188 391.512 227.143 391.512C224.675 391.512 223.337 378.338 223.337 378.338L239.689 376.995Z" fill="#212121"/>
<path d="M195.357 184.246C193.517 182.023 194.228 168.89 195.274 166.373C196.696 162.89 202.76 158.569 207.821 156.723C212.881 154.877 221.664 155.548 223.713 151.982C225.762 148.415 220.326 145.017 217.983 145.017C215.6 145.017 200.418 140.569 198.034 140.905C195.65 141.241 177.75 143.087 174.906 140.863C172.02 138.639 157.8 105.578 157.8 105.578C160.979 119.507 169.762 151.646 170.598 154.038C171.895 157.814 168.423 183.827 171.686 191.673L199.916 192.889H199.958L228.063 192.05C228.063 192.05 221.957 191.169 219.405 190.414C216.938 189.659 199.832 189.617 195.357 184.246Z" fill="#212121"/>
<path d="M225.428 233.881C226.599 241.308 227.937 291.194 228.146 294.005C228.356 296.774 235.424 373.723 235.758 377.289L242.617 376.744C242.617 376.744 243.495 344.143 242.157 327.78C240.777 311.417 238.686 294.802 238.142 289.348C237.598 283.935 237.933 234.091 236.093 222.889C234.253 211.686 227.895 191.421 227.895 191.421L211.292 192.596C211.25 192.596 224.257 226.455 225.428 233.881Z" fill="#403D3D"/>
<path d="M183.981 197.295C172.271 196.036 166.834 203.756 164.534 228.93C162.234 254.104 163.112 281.796 164.325 285.866C165.538 289.935 182.141 291.781 184.023 289.684C185.905 287.586 195.441 235.811 196.277 227.63C197.114 219.49 196.737 198.68 183.981 197.295Z" fill="#FFCBAC"/>
<path d="M173.358 307.179L170.264 306.76C165.621 306.172 162.317 301.851 162.903 297.194L164.241 286.788C164.827 282.131 169.134 278.817 173.777 279.404L176.872 279.824C181.514 280.411 184.818 284.733 184.232 289.39L182.894 299.795C182.309 304.452 178.001 307.809 173.358 307.179Z" fill="#FFCBAC"/>
<path d="M173.275 291.614C169.678 291.236 160.77 291.488 158.804 314.983C156.838 338.479 163.405 371.625 163.405 371.625L171.853 372.506C171.853 372.506 180.51 329.542 181.43 321.193C183.479 302.313 184.609 292.788 173.275 291.614Z" fill="#FFCBAC"/>
<path d="M171.811 191.421C171.811 191.421 165.412 211.686 163.614 222.889C161.773 234.091 162.108 283.935 161.564 289.348C161.021 294.76 158.888 311.375 157.549 327.78C156.169 344.143 157.089 376.744 157.089 376.744L178.001 378.422C178.001 378.422 185.194 309.361 186.323 298.494C187.453 287.628 199.874 230.399 199.874 230.399L200.041 192.889L171.811 191.421Z" fill="#212121"/>
<path d="M159.975 376.995C159.975 376.995 151.987 384.589 152.154 386.855C152.238 388.114 154.789 392.981 160.184 393.904C164.325 394.575 171.476 391.512 172.522 391.512C174.989 391.512 176.328 378.338 176.328 378.338L159.975 376.995Z" fill="#212121"/>
<path d="M217.733 58.1667C217.733 70.6278 208.322 83.047 200.334 83.0051C192.722 83.0051 182.978 70.5859 183.02 58.0828C183.02 45.6217 190.84 35.5101 200.418 35.5521C209.995 35.594 217.733 45.7056 217.733 58.1667Z" fill="#FFCBAC"/>
<path d="M183.02 60.6421C182.267 59.2995 179.674 53.5095 180.217 50.9082C180.803 48.3069 183.856 42.6427 184.86 40.9644C185.864 39.2862 194.897 34.7548 196.236 34.6709C197.574 34.5451 201.212 34.2094 204.015 34.6709C206.817 35.1325 211.794 37.0625 212.923 39.3281C214.052 41.5938 216.854 44.1951 217.732 45.9992C218.653 47.8034 220.2 52.4606 219.991 53.1319C219.782 53.8032 218.527 59.4673 218.402 59.9288C218.276 60.3904 217.482 61.6491 217.482 61.6491C217.482 61.6491 212.797 49.7334 212.714 48.6005C212.588 47.4677 188.958 47.0901 187.495 47.8873C186.031 48.6845 183.02 60.6421 183.02 60.6421Z" fill="#9B5644"/>
<path d="M230.279 99.5778C230.279 99.5778 237.096 100.585 242.24 103.941C247.385 107.34 268.965 132.052 268.965 132.052C268.965 132.052 256.293 149.171 255.456 149.758C254.62 150.345 235.131 134.234 235.131 134.234C235.131 134.234 223.629 106.081 230.279 99.5778Z" fill="#403D3D"/>
<path d="M181.807 228.595C180.175 236.063 179.339 241.265 179.548 244.832C180.092 253.811 176.955 296.9 176.453 297.949C175.993 298.998 170.222 375.191 169.887 377.792L177.917 378.422C177.917 378.422 185.111 309.361 186.24 298.494C187.118 290.019 194.897 253.181 198.243 237.531L198.954 233.545L196.361 227.336C193.559 220.455 183.438 221.336 181.807 228.595Z" fill="#403D3D"/>
<path d="M229.903 202.372H169.553C167.796 202.372 166.374 200.945 166.374 199.183V190.54C166.374 188.778 167.796 187.351 169.553 187.351H229.903C231.659 187.351 233.081 188.778 233.081 190.54V199.183C233.081 200.945 231.659 202.372 229.903 202.372Z" fill="#212121"/>
<path d="M198.912 97.8997L200.125 102.976L191.091 99.536L196.319 97.0605L198.912 97.8997Z" fill="#212121"/>
<path d="M201.212 97.8997L200.041 102.976L209.117 99.536L203.889 97.0605L201.212 97.8997Z" fill="#212121"/>
<path d="M181.388 95.1723L186.658 89.0047L198.912 97.8995L194.479 106.249L181.388 95.1723Z" fill="#424242"/>
<path d="M218.778 95.1723L213.508 89.0047L201.213 97.8995L205.688 106.249L218.778 95.1723Z" fill="#424242"/>
<path d="M180.928 45.244C180.928 45.244 173.484 44.0273 173.484 40.1253C173.484 35.9296 192.513 22 199.958 22V45.286L180.928 45.244Z" fill="#312F2F"/>
<path d="M218.987 45.244C218.987 45.244 226.432 44.0273 226.432 40.1253C226.432 35.9296 207.402 22 199.958 22V45.286L218.987 45.244Z" fill="#312F2F"/>
<path d="M219.196 44.6567H180.677V49.6915H219.196V44.6567Z" fill="#292929"/>
<path d="M183.396 49.6913C183.396 49.6913 189.209 57.1596 200.041 57.1596C210.832 57.1596 216.771 49.6913 216.771 49.6913H183.396Z" fill="#212121"/>
<path d="M219.196 48.0132H180.677V49.6914H219.196V48.0132Z" fill="#D1D1D1"/>
<path d="M219.196 44.6984H180.677V45.4536H219.196V44.6984Z" fill="#D1D1D1"/>
<path d="M196.528 42.8524C196.528 45.2439 199.038 47.1739 200.041 47.1739C201.38 47.1739 203.555 45.2439 203.555 42.8524C203.555 40.4609 202.718 38.5309 200.041 38.5309C197.365 38.4889 196.528 40.4609 196.528 42.8524Z" fill="#D1D1D1"/>
<path d="M121.624 146.695C118.152 149.8 116.981 154.122 125.555 163.94C134.129 173.757 157.048 194.022 157.048 194.022L162.694 188.988C162.694 188.988 150.44 165.702 146.048 160.205C141.615 154.667 130.741 138.514 121.624 146.695Z" fill="#FFCBAC"/>
<path d="M175.198 198.302C175.533 197.505 175.073 196.582 174.278 196.288L167.796 193.897C166.959 193.603 166.039 193.981 165.705 194.778C165.412 195.575 165.83 196.456 166.625 196.792L173.107 199.183C173.944 199.477 174.864 199.099 175.198 198.302Z" fill="#FFCBAC"/>
<path d="M176.537 195.659C176.871 194.862 176.411 193.939 175.617 193.645L169.134 191.253C168.298 190.96 167.378 191.337 167.043 192.176C166.75 192.974 167.168 193.855 167.963 194.19L174.446 196.582C175.282 196.876 176.202 196.456 176.537 195.659Z" fill="#FFCBAC"/>
<path d="M177.666 193.058C178.001 192.26 177.541 191.337 176.746 191.044L170.263 188.652C169.427 188.358 168.507 188.736 168.172 189.575C167.88 190.372 168.298 191.253 169.092 191.589L175.575 193.981C176.411 194.274 177.373 193.855 177.666 193.058Z" fill="#FFCBAC"/>
<path d="M178.544 190.414C178.879 189.617 178.419 188.694 177.624 188.4L171.142 186.009C170.305 185.715 169.385 186.093 169.051 186.932C168.758 187.729 169.176 188.61 169.971 188.946L176.453 191.337C177.29 191.631 178.21 191.211 178.544 190.414Z" fill="#FFCBAC"/>
<path d="M154.998 183.911C154.998 183.911 166.416 183.323 168.591 183.827C170.765 184.33 178.168 188.778 178.168 188.778C178.168 188.778 174.655 190.498 174.195 192.344C173.735 194.232 173.066 199.141 173.066 199.141C173.066 199.141 165.537 198.386 162.317 196.959C159.097 195.575 156.253 193.477 156.253 193.477L154.998 183.911Z" fill="#FFCBAC"/>
<path d="M278.376 146.737C281.847 149.884 282.976 154.205 274.319 163.939C265.661 173.673 242.617 193.813 242.617 193.813L237.013 188.736C237.013 188.736 249.434 165.534 253.867 160.037C258.342 154.541 269.342 138.514 278.376 146.737Z" fill="#FFCBAC"/>
<path d="M224.131 198.302C223.797 197.505 224.257 196.582 225.051 196.288L231.534 193.897C232.37 193.603 233.29 193.981 233.625 194.778C233.918 195.575 233.499 196.456 232.705 196.792L226.222 199.183C225.386 199.477 224.466 199.099 224.131 198.302Z" fill="#FFCBAC"/>
<path d="M222.793 195.659C222.458 194.862 222.918 193.939 223.713 193.645L230.195 191.253C231.032 190.96 231.952 191.337 232.287 192.176C232.579 192.974 232.161 193.855 231.366 194.19L224.884 196.582C224.047 196.876 223.127 196.456 222.793 195.659Z" fill="#FFCBAC"/>
<path d="M221.664 193.058C221.329 192.26 221.789 191.337 222.584 191.044L229.066 188.652C229.903 188.358 230.823 188.736 231.158 189.575C231.45 190.372 231.032 191.253 230.237 191.589L223.755 193.981C222.918 194.274 221.957 193.855 221.664 193.058Z" fill="#FFCBAC"/>
<path d="M220.785 190.414C220.451 189.617 220.911 188.694 221.706 188.4L228.188 186.009C229.025 185.715 229.945 186.093 230.279 186.932C230.572 187.729 230.154 188.61 229.359 188.946L222.877 191.337C222.04 191.631 221.12 191.211 220.785 190.414Z" fill="#FFCBAC"/>
<path d="M244.332 183.911C244.332 183.911 232.914 183.323 230.739 183.827C228.564 184.33 221.162 188.778 221.162 188.778C221.162 188.778 224.675 190.498 225.135 192.344C225.595 194.232 226.264 199.141 226.264 199.141C226.264 199.141 233.792 198.386 237.013 196.959C240.233 195.575 243.077 193.477 243.077 193.477L244.332 183.911Z" fill="#FFCBAC"/>
<path d="M224.8 111.326C224.8 110.906 224.466 110.57 224.048 110.57C223.504 110.528 222.668 110.487 221.998 110.361C221.078 110.193 219.991 109.773 219.489 109.563C219.322 109.48 219.113 109.48 218.945 109.563C218.443 109.773 217.356 110.193 216.436 110.361C215.725 110.487 214.93 110.57 214.387 110.57C213.968 110.612 213.676 110.906 213.634 111.326C213.55 112.836 213.508 116.402 214.47 118.5C216.018 121.815 218.276 122.78 218.987 123.032C219.113 123.074 219.28 123.074 219.447 123.032C220.158 122.78 222.458 121.815 223.964 118.5C224.884 116.444 224.842 112.878 224.8 111.326Z" fill="#D1D1D1"/>
</svg>
