<svg width="217" height="292" viewBox="0 0 217 292" fill="none" xmlns="http://www.w3.org/2000/svg">
<path d="M39.5717 0.0152646L36.5561 231.822L213.968 234.127L216.983 2.32044L39.5717 0.0152646Z" fill="#DDB785"/>
<path opacity="0.09" d="M199.228 34.2668L143.271 45.0175C134.206 46.7592 124.904 46.6388 115.887 44.6604L60.232 32.4609C49.1861 30.4464 41.178 20.3337 41.3307 8.59178L41.4231 1.51691L216.859 2.29944L217 11.2724C216.843 23.0224 210.322 32.5372 199.228 34.2668Z" fill="#272525"/>
<path d="M197.251 32.7499L141.294 43.5006C132.229 45.2423 122.927 45.1219 113.91 43.1435L58.2551 30.944C47.2092 28.9295 39.2011 18.8168 39.3537 7.07487L39.4461 0L216.859 2.29943L216.767 9.37431C216.61 21.1203 208.345 31.0203 197.251 32.7499Z" fill="#BC9162"/>
<path d="M128.179 85.669C120.448 85.5686 114.24 79.2041 114.34 71.4831L114.778 37.9266C114.879 30.2057 121.252 24.0056 128.982 24.1059C136.713 24.2063 142.921 30.5708 142.821 38.2918L142.383 71.8483C142.283 79.5692 135.91 85.7693 128.179 85.669ZM128.962 25.3179C121.903 25.2256 116.08 30.8879 115.988 37.9427L115.55 71.4991C115.457 78.5499 121.127 84.3647 128.191 84.457C135.251 84.5493 141.073 78.887 141.166 71.8322L141.604 38.2757C141.696 31.2209 136.026 25.4102 128.962 25.3179Z" fill="#FECA57"/>
<path d="M140.862 39.3852C144.162 32.7596 141.461 24.7139 134.829 21.4145C128.196 18.1152 120.144 20.8116 116.844 27.4372C113.544 34.0628 116.246 42.1085 122.878 45.4079C129.51 48.7072 137.562 46.0108 140.862 39.3852Z" fill="#4C4B44"/>
<path d="M133.717 38.2522C136.401 35.5709 136.401 31.2235 133.717 28.5421C131.032 25.8607 126.679 25.8607 123.994 28.5421C121.309 31.2235 121.309 35.5709 123.994 38.2522C126.679 40.9336 131.032 40.9336 133.717 38.2522Z" fill="#BDB39B"/>
<path d="M132.056 33.4361C132.032 35.2018 130.582 36.6104 128.818 36.5903C127.05 36.5662 125.639 35.1175 125.66 33.3558C125.684 31.5901 127.134 30.1816 128.898 30.2016C130.666 30.2257 132.081 31.6744 132.056 33.4361Z" fill="#434244"/>
<path d="M129.283 89.0374C136.673 88.4946 142.223 82.0717 141.68 74.6914C141.138 67.3111 134.707 61.7682 127.317 62.3111C119.928 62.8539 114.377 69.2768 114.92 76.6571C115.463 84.0374 121.893 89.5802 129.283 89.0374Z" fill="#4C4B44"/>
<path d="M133.654 79.992C136.048 77.0478 135.598 72.7235 132.65 70.3333C129.702 67.9431 125.372 68.3923 122.979 71.3364C120.586 74.2806 121.035 78.605 123.983 80.9951C126.931 83.3853 131.261 82.9362 133.654 79.992Z" fill="#BDB39B"/>
<path d="M129.079 78.7691C130.795 78.3507 131.846 76.6221 131.427 74.9082C131.008 73.1943 129.277 72.1441 127.561 72.5626C125.845 72.981 124.794 74.7096 125.213 76.4235C125.632 78.1374 127.362 79.1876 129.079 78.7691Z" fill="#434244"/>
<path d="M163.137 67.2735H0V292H163.137V67.2735Z" fill="#F9F9F9"/>
<g clip-path="url(#clip0_912_16149)">
<path d="M-1.20797 123.014C53.6298 123.014 108.473 123.014 163.311 123.014C166.71 123.014 166.71 119.162 163.311 119.162C108.473 119.162 53.6298 119.162 -1.20797 119.162C-4.60719 119.162 -4.60719 123.014 -1.20797 123.014Z" fill="#9E9E9D"/>
<path d="M-1.20797 134.381C53.6298 134.381 108.473 134.381 163.311 134.381C166.71 134.381 166.71 130.529 163.311 130.529C108.473 130.529 53.6298 130.529 -1.20797 130.529C-4.60719 130.529 -4.60719 134.381 -1.20797 134.381Z" fill="#9E9E9D"/>
<path d="M-1.20797 145.749C53.6298 145.749 108.473 145.749 163.311 145.749C166.71 145.749 166.71 141.896 163.311 141.896C108.473 141.896 53.6298 141.896 -1.20797 141.896C-4.60719 141.896 -4.60719 145.749 -1.20797 145.749Z" fill="#9E9E9D"/>
<path d="M-1.20797 157.116C53.6298 157.116 108.473 157.116 163.311 157.116C166.71 157.116 166.71 153.263 163.311 153.263C108.473 153.263 53.6298 153.263 -1.20797 153.263C-4.60719 153.263 -4.60719 157.116 -1.20797 157.116Z" fill="#9E9E9D"/>
<path d="M-1.20797 168.483C53.6298 168.483 108.473 168.483 163.311 168.483C166.71 168.483 166.71 164.63 163.311 164.63C108.473 164.63 53.6298 164.63 -1.20797 164.63C-4.60719 164.63 -4.60719 168.483 -1.20797 168.483Z" fill="#9E9E9D"/>
<path d="M-1.20797 179.85C53.6298 179.85 108.473 179.85 163.311 179.85C166.71 179.85 166.71 175.998 163.311 175.998C108.473 175.998 53.6298 175.998 -1.20797 175.998C-4.60719 175.998 -4.60719 179.85 -1.20797 179.85Z" fill="#9E9E9D"/>
<path d="M-1.20797 191.217C53.6298 191.217 108.473 191.217 163.311 191.217C166.71 191.217 166.71 187.365 163.311 187.365C108.473 187.365 53.6298 187.365 -1.20797 187.365C-4.60719 187.365 -4.60719 191.217 -1.20797 191.217Z" fill="#9E9E9D"/>
</g>
<path d="M115.815 244.354L107.345 271.999L113.838 266.14L116.739 274.495L123.952 241.424L118.101 236.336L115.815 244.354Z" fill="#F86866"/>
<path d="M123.956 246.95L132.474 274.58L134.56 266.088L141.652 271.381L129.047 239.964L121.348 239.029L123.956 246.95Z" fill="#F86866"/>
<path d="M125.294 217.527L126.138 220.645C126.564 222.214 128.496 222.78 129.702 221.693L132.101 219.526C133.752 218.037 136.312 219.682 135.641 221.797L134.664 224.875C134.174 226.424 135.492 227.945 137.099 227.68L140.29 227.154C142.483 226.793 143.749 229.558 142.037 230.979L139.55 233.041C138.297 234.081 138.586 236.071 140.081 236.713L143.05 237.993C145.091 238.872 144.657 241.882 142.451 242.151L139.241 242.544C137.626 242.741 136.79 244.571 137.698 245.919L139.502 248.6C140.744 250.442 138.751 252.741 136.746 251.774L133.832 250.369C132.366 249.663 130.67 250.751 130.706 252.376L130.775 255.602C130.823 257.821 127.902 258.68 126.736 256.786L125.045 254.033C124.193 252.649 122.18 252.649 121.328 254.033L119.636 256.786C118.475 258.68 115.554 257.821 115.598 255.602L115.666 252.376C115.703 250.751 114.007 249.663 112.54 250.369L109.627 251.774C107.626 252.741 105.629 250.442 106.871 248.6L108.675 245.919C109.583 244.571 108.747 242.741 107.132 242.544L103.921 242.151C101.715 241.882 101.281 238.872 103.323 237.993L106.292 236.713C107.787 236.071 108.072 234.077 106.822 233.041L104.335 230.979C102.623 229.562 103.889 226.793 106.083 227.154L109.273 227.68C110.877 227.945 112.199 226.424 111.708 224.875L110.732 221.797C110.061 219.678 112.621 218.037 114.272 219.526L116.671 221.693C117.876 222.784 119.813 222.214 120.235 220.645L121.079 217.527C121.665 215.38 124.711 215.38 125.294 217.527Z" fill="#FECA57"/>
<path d="M123.188 247.641C117.241 247.641 112.408 242.809 112.408 236.874C112.408 230.935 117.245 226.107 123.188 226.107C129.135 226.107 133.969 230.939 133.969 236.874C133.973 242.809 129.135 247.641 123.188 247.641ZM123.188 226.488C117.454 226.488 112.793 231.147 112.793 236.87C112.793 242.596 117.458 247.251 123.188 247.251C128.922 247.251 133.583 242.592 133.583 236.87C133.587 231.147 128.922 226.488 123.188 226.488Z" fill="white"/>
<defs>
<clipPath id="clip0_912_16149">
<rect width="127.75" height="72.0555" fill="white" transform="translate(17.1765 119.162)"/>
</clipPath>
</defs>
</svg>
