<?xml version="1.0" encoding="utf-8"?><svg viewBox="0 0 120 140" xmlns="http://www.w3.org/2000/svg" xmlns:xlink="http://www.w3.org/1999/xlink"><style>:root>svg{display:none}:root>svg:target{display:block}</style><svg viewBox="0 0 34 35" id="Instagram-icon" xmlns="http://www.w3.org/2000/svg"><rect x=".7" y="1.336" width="32.6" height="32.6" rx="2.3"/><circle cx="17" cy="17.636" r="8.65"/><circle cx="27.625" cy="7.011" r="2.275"/></svg><svg viewBox="0 0 34 27" id="YOUtube-icon" xmlns="http://www.w3.org/2000/svg"><rect x=".7" y=".843" width="32.6" height="24.95" rx="2.3"/><path d="M24.147 11.604c1.938.768 1.938 3.51 0 4.277l-11.163 4.42a2.3 2.3 0 01-3.146-2.139V9.324a2.3 2.3 0 013.146-2.139l11.163 4.42z"/></svg><svg viewBox="0 0 23 50" id="arrow-dw-icon" xmlns="http://www.w3.org/2000/svg"><path d="M12.385 0v45.581l9.288-10.749L23 36.192 11.5 49.5 0 36.192l1.327-1.36 9.288 10.75V0h1.77z"/></svg><svg viewBox="0 0 27 13" id="arrow-left" xmlns="http://www.w3.org/2000/svg"><path d="M0 6h24.863L18.998.75 19.74 0 27 6.5 19.74 13l-.74-.75L24.862 7H0V6z"/></svg><svg viewBox="0 0 33 34" id="comprasion-icon" xmlns="http://www.w3.org/2000/svg"><path d="M13 1h7v32h-7zM1 16h7v17H1zm24-8h7v25h-7z"/></svg><svg viewBox="0 0 34 34" id="facebook-icon" xmlns="http://www.w3.org/2000/svg"><g clip-path="url(#fa)"><path d="M31.167 0H2.833A2.806 2.806 0 000 2.833v28.334A2.806 2.806 0 002.833 34h28.334A2.806 2.806 0 0034 31.167V2.833A2.806 2.806 0 0031.167 0zM17 32.867V21.533h-4.533V17H17v-3.967c0-3.23 2.493-5.95 5.667-6.233h5.1v4.533h-4.534c-.963 0-1.7.737-1.7 1.7V17H27.2v4.533h-5.667v11.334H17zm15.867-1.7c0 .963-.737 1.7-1.7 1.7h-8.5v-10.2h5.666v-6.8h-5.666v-2.834c0-.34.226-.566.566-.566H28.9v-6.8h-6.29c-3.797.34-6.743 3.57-6.743 7.366v2.834h-4.534v6.8h4.534v10.2H2.833a1.67 1.67 0 01-1.7-1.7V2.833c0-.963.737-1.7 1.7-1.7h28.334c.963 0 1.7.737 1.7 1.7v28.334z"/></g><defs><clipPath id="fa"><path d="M0 0h34v34H0z"/></clipPath></defs></svg><svg viewBox="0 0 32 32" id="ic_baseline-speed" xmlns="http://www.w3.org/2000/svg"><path d="M27.173 11.427l-1.64 2.466A10.667 10.667 0 0125.24 24H6.76A10.667 10.667 0 0120.773 9.133l2.467-1.64a13.333 13.333 0 00-18.774 17.84 2.666 2.666 0 002.294 1.334h18.466a2.667 2.667 0 002.32-1.334 13.334 13.334 0 00-.36-13.92l-.013.014zm-13.053 9.12a2.668 2.668 0 003.773 0l7.547-11.32-11.32 7.546a2.668 2.668 0 000 3.774z"/></svg><svg viewBox="0 0 44 45" id="load-icon" xmlns="http://www.w3.org/2000/svg"><circle cx="22" cy="22.669" r="20.5"/><defs><linearGradient id="ha" x1="20.5" y1="21.169" x2="20.5" y2="21.169" gradientUnits="userSpaceOnUse"><stop stop-color="#363636" stop-opacity=".37"/><stop offset="1" stop-color="#D5D5D5"/></linearGradient></defs></svg><svg viewBox="0 0 120 120" id="play" xmlns="http://www.w3.org/2000/svg"><g filter="url(#ia)"><circle cx="60" cy="60" r="45" fill-opacity=".3"/><circle cx="60" cy="60" r="44.5"/></g><path d="M78.191 60.957l-25.85 14.925v-29.85l25.85 14.925z"/><defs><filter id="ia" x="0" y="0" width="120" height="120" filterUnits="userSpaceOnUse" color-interpolation-filters="sRGB"><feFlood flood-opacity="0" result="BackgroundImageFix"/><feColorMatrix in="SourceAlpha" values="0 0 0 0 0 0 0 0 0 0 0 0 0 0 0 0 0 0 127 0" result="hardAlpha"/><feOffset/><feGaussianBlur stdDeviation="7.5"/><feColorMatrix values="0 0 0 0 0 0 0 0 0 0 0 0 0 0 0 0 0 0 0.5 0"/><feBlend in2="BackgroundImageFix" result="effect1_dropShadow_328_587"/><feColorMatrix in="SourceAlpha" values="0 0 0 0 0 0 0 0 0 0 0 0 0 0 0 0 0 0 127 0" result="hardAlpha"/><feOffset dy="4"/><feGaussianBlur stdDeviation="2"/><feColorMatrix values="0 0 0 0 0 0 0 0 0 0 0 0 0 0 0 0 0 0 0.25 0"/><feBlend in2="effect1_dropShadow_328_587" result="effect2_dropShadow_328_587"/><feBlend in="SourceGraphic" in2="effect2_dropShadow_328_587" result="shape"/><feColorMatrix in="SourceAlpha" values="0 0 0 0 0 0 0 0 0 0 0 0 0 0 0 0 0 0 127 0" result="hardAlpha"/><feOffset dy="15"/><feGaussianBlur stdDeviation="5"/><feComposite in2="hardAlpha" operator="arithmetic" k2="-1" k3="1"/><feColorMatrix values="0 0 0 0 0 0 0 0 0 0 0 0 0 0 0 0 0 0 0.25 0"/><feBlend in2="shape" result="effect3_innerShadow_328_587"/></filter></defs></svg><svg viewBox="0 0 20 20" id="point" xmlns="http://www.w3.org/2000/svg"><circle cx="10" cy="10" r="10"/></svg><svg viewBox="0 0 34 35" id="search-icon" xmlns="http://www.w3.org/2000/svg"><path d="M12.943 0a12.942 12.942 0 019.82 21.372L34 32.609l-1.408 1.408-11.24-11.24A12.941 12.941 0 1112.943 0zm0 1.991a10.95 10.95 0 100 21.901 10.95 10.95 0 000-21.901z"/></svg><svg viewBox="0 0 26 26" id="seat1" xmlns="http://www.w3.org/2000/svg"><g clip-path="url(#la)"><path d="M21.639 5.38a2.597 2.597 0 01-2.977-4.257 2.597 2.597 0 013.62.637 2.605 2.605 0 01-.643 3.62zm-.793 14.067L23.4 7.149H26L23.407 19.83a6.495 6.495 0 01-6.422 5.519H7.8v-2.6h9.191a3.9 3.9 0 003.855-3.302z"/><path d="M7.501 17.549h6.344l1.333-5.33c-2.048 1.157-4.264 2.008-6.695 1.586v-2.763c2.119.397 4.472-.357 6.097-1.618l2.138-1.664c.293-.228.637-.39.995-.494.41-.117.851-.15 1.287-.078l.032.006a2.926 2.926 0 012.38 3.387l-1.762 7.696a3.9 3.9 0 01-3.829 3.172H6.916l-4.966 3.9L0 23.399l7.501-5.85z"/></g><defs><clipPath id="la"><path transform="matrix(-1 0 0 1 26 0)" d="M0 0h26v26H0z"/></clipPath></defs></svg><svg viewBox="0 0 32 32" id="track1" xmlns="http://www.w3.org/2000/svg"><g clip-path="url(#ma)"><path d="M5.389 9.614a.616.616 0 10.001 1.232.616.616 0 00-.001-1.232z"/><path d="M5.389 4.84A5.395 5.395 0 000 10.23c0 1.472.803 3.395 2.386 5.716a31.88 31.88 0 002.299 2.97.945.945 0 001.408 0 31.866 31.866 0 002.298-2.97c1.584-2.32 2.387-4.244 2.387-5.716a5.395 5.395 0 00-5.39-5.389zm0 7.894a2.507 2.507 0 01-2.505-2.505A2.507 2.507 0 015.39 7.724a2.507 2.507 0 012.504 2.505 2.507 2.507 0 01-2.504 2.505zM22.276 25.27h-2.35a3.024 3.024 0 01-3.021-3.02 4.916 4.916 0 00-4.91-4.91H9.724a35.094 35.094 0 01-1.427 1.89h3.698a3.024 3.024 0 013.02 3.02 4.916 4.916 0 004.91 4.91h3.778a35.045 35.045 0 01-1.427-1.89zm4.335-7.726a.616.616 0 10.001 1.232.616.616 0 000-1.232z"/><path d="M26.611 12.77a5.395 5.395 0 00-5.389 5.39c0 1.472.803 3.395 2.387 5.716a31.876 31.876 0 002.298 2.969.945.945 0 001.409 0 31.82 31.82 0 002.298-2.97C31.197 21.556 32 19.633 32 18.16a5.395 5.395 0 00-5.389-5.39zm0 7.894a2.507 2.507 0 01-2.505-2.504 2.507 2.507 0 012.505-2.505 2.507 2.507 0 012.505 2.505 2.507 2.507 0 01-2.505 2.504z"/></g><defs><clipPath id="ma"><path d="M0 0h32v32H0z"/></clipPath></defs></svg><svg viewBox="0 0 1 140" id="vertical-icon" xmlns="http://www.w3.org/2000/svg"><path d="M1 0H0v140h1z"/></svg></svg>