<svg width="1584" height="396" xmlns="http://www.w3.org/2000/svg">
 <g id="Layer_1">
  <title>Layer 1</title>
  <g id="svg_14">
   <path id="svg_11" d="m862.8038,152.74516l-15.29444,-21.07088l0,-50.32376l-13.11166,0l0,32.26006l-30.59388,-42.14865l-58.99999,81.28324l14.04571,-0.46105l0,82.17782l89.28418,0l0,-81.71677l14.67008,0zm-58.99999,69.96331l-29.13536,0l0,-48.16988l29.13536,0l0,48.16988zm28.30621,-20.64424l-19.14553,0l0,-27.81467l19.14553,0l0,27.81467z" stroke="#000" fill="none"/>
   <path id="svg_13" d="m763.77271,40.48102c-6.13238,0 -11.0989,5.31285 -11.0989,11.87287c0,6.55549 4.96652,11.87136 11.0989,11.87136c6.12674,0 11.09608,-5.31587 11.09608,-11.87136c0.00141,-6.56001 -4.96652,-11.87287 -11.09608,-11.87287zm0,20.72963c-4.5732,-0.01206 -8.26954,-3.96617 -8.28082,-8.85526c0.00987,-4.8906 3.70762,-8.84621 8.28082,-8.85828c4.57038,0.01206 8.26672,3.96768 8.27659,8.85828c-0.00987,4.88909 -3.70621,8.8432 -8.27659,8.85526zm0,-21.52438c0.77959,0 1.40974,-0.67561 1.40974,-1.50956l0,-7.31554c-0.00282,-0.83395 -0.63156,-1.50805 -1.40974,-1.50805c-0.77959,0 -1.41115,0.67711 -1.40974,1.51106l0,7.31403c0,0.83093 0.63015,1.50805 1.40974,1.50805zm4.5295,0.96213c0.17622,0.07993 0.35948,0.11461 0.53852,0.11612c0.55544,0 1.07845,-0.35138 1.30401,-0.93197l2.61648,-6.76058c0.29605,-0.77061 -0.0437,-1.65131 -0.76267,-1.96951c-0.72038,-0.3182 -1.54508,0.04675 -1.84394,0.81585l-2.61507,6.76209c-0.29746,0.7691 0.0437,1.65131 0.76267,1.968zm3.84155,2.74616c0.2749,0.29256 0.63579,0.44186 0.99669,0.44186s0.72179,-0.14779 0.99669,-0.44186l4.83541,-5.17713c0.55121,-0.58814 0.5498,-1.54273 0,-2.13389c-0.55262,-0.58814 -1.44499,-0.58814 -1.99478,0.00302l-4.834,5.17411c-0.55121,0.58965 -0.55121,1.54424 0,2.13389zm2.56996,4.10792c0.22274,0.5806 0.74857,0.93047 1.30119,0.93047c0.17904,0 0.3623,-0.0377 0.53993,-0.11763l6.31564,-2.80045c0.72038,-0.3182 1.06154,-1.20191 0.76267,-1.97102s-1.12215,-1.13405 -1.84253,-0.81435l-6.31705,2.80045c-0.71897,0.31971 -1.05872,1.20342 -0.75985,1.97253zm9.14781,3.3343l-6.83866,0.00151c-0.77818,0 -1.40974,0.67561 -1.40692,1.50956c0,0.83395 0.63015,1.50654 1.40692,1.50654l6.84007,-0.00302c0.77959,0 1.40833,-0.67711 1.40833,-1.50805c0,-0.83395 -0.63156,-1.50956 -1.40974,-1.50654zm-0.984,8.33649l-6.31846,-2.79592c-0.72179,-0.31971 -1.54649,0.04524 -1.84253,0.81585c-0.29746,0.77061 0.0437,1.65282 0.76267,1.97253l6.31846,2.79592c0.17763,0.07691 0.36089,0.1131 0.53993,0.1131c0.55403,0 1.07845,-0.34987 1.30401,-0.93047c0.29605,-0.77061 -0.04652,-1.65433 -0.76408,-1.97102zm-8.73194,2.13087c-0.55121,-0.58965 -1.44217,-0.58965 -1.99337,0.00151c-0.55121,0.58814 -0.5498,1.54123 0,2.13087l4.84105,5.1711c0.2749,0.29407 0.63438,0.44186 0.99528,0.44186s0.7232,-0.14779 0.9981,-0.44186c0.55121,-0.59115 0.54839,-1.54575 0,-2.13389l-4.84105,-5.16959zm-3.99098,3.56352c-0.29746,-0.77061 -1.12215,-1.13405 -1.84253,-0.81585c-0.71897,0.31971 -1.06013,1.20191 -0.76126,1.97253l2.62212,6.75606c0.22415,0.5806 0.74857,0.93047 1.30401,0.93047c0.18045,0 0.36371,-0.03619 0.53993,-0.11461c0.72038,-0.3182 1.06013,-1.20191 0.76126,-1.97404l-2.62353,-6.75455zm-6.3678,0.15533c-0.77959,0 -1.40974,0.67561 -1.40974,1.50805l0.00564,7.31554c0,0.83395 0.63297,1.50654 1.40974,1.50654c0.77959,0 1.40974,-0.67561 1.40692,-1.50805l-0.00423,-7.31705c0,-0.82943 -0.63297,-1.50654 -1.40833,-1.50503zm-4.53373,-0.95912c-0.71897,-0.31669 -1.54226,0.04675 -1.84112,0.81887l-2.61084,6.76058c-0.29605,0.77061 0.04652,1.65282 0.76549,1.97102c0.17622,0.07842 0.35807,0.11461 0.53852,0.11461c0.55262,0 1.07845,-0.35288 1.3026,-0.93348l2.61225,-6.7636c0.29746,-0.7691 -0.04652,-1.6498 -0.7669,-1.968zm-3.84296,-2.74012c-0.55262,-0.58965 -1.44499,-0.58663 -1.99478,0.00302l-4.82977,5.17713c-0.55121,0.59115 -0.54839,1.54273 0.00282,2.13389c0.2749,0.29256 0.63438,0.44035 0.99528,0.44035c0.3623,0 0.7232,-0.14779 0.9981,-0.44186l4.83118,-5.17864c0.54839,-0.58965 0.54839,-1.54424 -0.00282,-2.13389zm-2.57137,-4.1034c-0.30027,-0.7676 -1.12356,-1.13254 -1.84253,-0.81435l-6.31423,2.80648c-0.72038,0.31971 -1.06013,1.20342 -0.76126,1.97253c0.22556,0.5806 0.74857,0.92896 1.3026,0.92896c0.17904,0 0.36371,-0.03619 0.53993,-0.11461l6.31423,-2.80648c0.71756,-0.32272 1.05872,-1.20493 0.76126,-1.97253zm-0.91069,-4.84385c0,-0.83395 -0.63015,-1.50654 -1.40974,-1.50654l-6.83866,0.00905c-0.77959,0 -1.41115,0.67561 -1.40833,1.50956c0.00141,0.83093 0.63297,1.50805 1.40974,1.50503l6.84007,-0.00905c0.77818,0 1.40974,-0.67862 1.40692,-1.50805zm-7.26863,-6.8209l6.32269,2.78989c0.17622,0.07993 0.35807,0.11461 0.53711,0.11461c0.55403,0 1.07986,-0.34987 1.30401,-0.93197c0.29887,-0.77061 -0.04511,-1.65433 -0.7669,-1.96951l-6.31987,-2.78989c-0.72038,-0.31669 -1.54367,0.04826 -1.84112,0.81736c-0.29887,0.77061 0.04652,1.6498 0.76408,1.96951zm8.73053,-2.13841c0.2749,0.29105 0.63297,0.43884 0.99387,0.43884s0.7232,-0.14779 0.99951,-0.44487c0.55121,-0.58663 0.54839,-1.54273 -0.00564,-2.13238l-4.84105,-5.16356c-0.5498,-0.58814 -1.44499,-0.58512 -1.99337,0.00452c-0.55121,0.58814 -0.54839,1.54424 0.00282,2.13238l4.84387,5.16507zm3.98534,-3.56955c0.22556,0.57909 0.74998,0.92745 1.30119,0.92745c0.18045,0 0.36371,-0.0377 0.54134,-0.11612c0.71897,-0.31971 1.06154,-1.20342 0.76126,-1.97102l-2.62776,-6.75455c-0.29887,-0.7691 -1.12497,-1.13254 -1.84394,-0.81284c-0.71897,0.32121 -1.05872,1.20493 -0.75985,1.97253l2.62776,6.75455z" opacity="undefined" stroke="#000" fill="none"/>
  </g>
 </g>
</svg>